<?xml version="1.0" encoding="UTF-8"?>
<svg id="Layer_2" data-name="Layer 2" xmlns="http://www.w3.org/2000/svg" viewBox="0 0 159.6 123.56">
  <defs>
    <style>
      .cls-1 {
        font-family: Tahoma, Tahoma;
        font-size: 34.46px;
      }

      .cls-1, .cls-2 {
        fill: #73787c;
      }

      .cls-3 {
        fill: #f0483e;
      }
    </style>
  </defs>
  <g id="Layer_1-2" data-name="Layer 1">
    <g>
      <g>
        <path class="cls-3" d="M0,40.4c0,23.41,18.12,40.41,43.04,40.41,3.46,0,14.58-.65,22.23-8-.02,2.43,0,6.5,0,6.5h16.94v-46.54h-36.79v16.63h14.96c-1.78,6.1-8.58,12.2-17.81,12.2-13.53,0-18.34-10.94-18.34-21.2s4.81-21.19,18.34-21.19c6.79,0,12.33,2.42,14.46,6.29l.35.68h24.56l-.31-1.48C77.45,6.48,58.24,0,43.04,0,18.12,0,0,17,0,40.4"/>
        <path class="cls-2" d="M111.96,61.68h-5.65c.87-1.18,1.96-2.26,3.25-3.23,2.92-2.19,5.98-4.33,8.95-6.41l.62-.43c3.52-2.46,6.93-4.93,9.96-7.98,6.16-6.2,8.92-13.38,8.2-21.35-.66-7.28-3.99-13.02-9.89-17.06-3.87-2.65-8.41-4.16-13.5-4.48-5.91-.37-11.26.69-15.89,3.15-4.55,2.41-8.44,6.2-11.55,11.24-.2.32-.33.61-.42.79-.02.03-.03.07-.05.1l-1.69,3.39,13.36,8.97,2.48-3.04c.32-.39.63-.79.94-1.18.57-.73,1.12-1.43,1.66-2,2.79-2.93,5.68-4.15,9.09-3.84,2.35.21,4.04.97,5.32,2.39,1.86,2.05,2.18,5.32.78,7.95-.93,1.76-2.31,3.32-4.19,4.78-2.87,2.22-5.9,4.38-8.83,6.48l-.51.37c-3.94,2.82-7.46,5.43-10.63,8.75-3.21,3.36-5.45,6.85-6.86,10.66l-.27.72v18.89h4.31c18.39,0,25.42-.01,39.13-.01h7.71v-17.64c-11.77.02-16.57.02-25.85.02Z"/>
        <rect class="cls-3" x="142.14" y="61.79" width="17.46" height="17.46"/>
      </g>
      <text class="cls-1" transform="translate(12.28 116.12)"><tspan x="0" y="0">group</tspan></text>
    </g>
  </g>
</svg>